<mxfile host="Electron" modified="2023-12-08T10:41:31.559Z" agent="Mozilla/5.0 (Windows NT 10.0; Win64; x64) AppleWebKit/537.36 (KHTML, like Gecko) draw.io/22.1.2 Chrome/114.0.5735.289 Electron/25.9.4 Safari/537.36" etag="3PyYiYY8hb3aBEb8Kzi8" version="22.1.2" type="device">
  <diagram name="Página-1" id="gw_kT8l4-0_Sta3T81P9">
    <mxGraphModel dx="988" dy="592" grid="1" gridSize="10" guides="1" tooltips="1" connect="1" arrows="1" fold="1" page="1" pageScale="1" pageWidth="827" pageHeight="1169" math="0" shadow="0">
      <root>
        <mxCell id="0" />
        <mxCell id="1" parent="0" />
        <mxCell id="USSSRxIXR-6L6_t2q-sk-48" value="" style="edgeStyle=orthogonalEdgeStyle;rounded=0;orthogonalLoop=1;jettySize=auto;html=1;" edge="1" parent="1" source="USSSRxIXR-6L6_t2q-sk-1" target="USSSRxIXR-6L6_t2q-sk-16">
          <mxGeometry relative="1" as="geometry" />
        </mxCell>
        <mxCell id="USSSRxIXR-6L6_t2q-sk-1" value="PLC NX1_1&lt;br&gt;192.168.250.1" style="rounded=1;whiteSpace=wrap;html=1;" vertex="1" parent="1">
          <mxGeometry x="180" y="338.75" width="120" height="60" as="geometry" />
        </mxCell>
        <mxCell id="USSSRxIXR-6L6_t2q-sk-46" value="" style="edgeStyle=orthogonalEdgeStyle;rounded=0;orthogonalLoop=1;jettySize=auto;html=1;" edge="1" parent="1" source="USSSRxIXR-6L6_t2q-sk-2" target="USSSRxIXR-6L6_t2q-sk-15">
          <mxGeometry relative="1" as="geometry" />
        </mxCell>
        <mxCell id="USSSRxIXR-6L6_t2q-sk-2" value="PLC NX1_2&lt;br&gt;192.168.250.2" style="rounded=1;whiteSpace=wrap;html=1;" vertex="1" parent="1">
          <mxGeometry x="540" y="338.75" width="120" height="60" as="geometry" />
        </mxCell>
        <mxCell id="USSSRxIXR-6L6_t2q-sk-4" value="HMI0&lt;br&gt;192.168.250.3" style="rounded=1;whiteSpace=wrap;html=1;" vertex="1" parent="1">
          <mxGeometry x="180" y="170" width="120" height="60" as="geometry" />
        </mxCell>
        <mxCell id="USSSRxIXR-6L6_t2q-sk-5" value="HMI1&lt;br&gt;192.168.250.4" style="rounded=1;whiteSpace=wrap;html=1;" vertex="1" parent="1">
          <mxGeometry x="540" y="170" width="120" height="60" as="geometry" />
        </mxCell>
        <mxCell id="USSSRxIXR-6L6_t2q-sk-6" value="PC&lt;br&gt;192.168.250.44" style="shape=process;whiteSpace=wrap;html=1;backgroundOutline=1;" vertex="1" parent="1">
          <mxGeometry x="360" y="338.75" width="120" height="60" as="geometry" />
        </mxCell>
        <mxCell id="USSSRxIXR-6L6_t2q-sk-47" value="" style="edgeStyle=orthogonalEdgeStyle;rounded=0;orthogonalLoop=1;jettySize=auto;html=1;" edge="1" parent="1" source="USSSRxIXR-6L6_t2q-sk-15" target="USSSRxIXR-6L6_t2q-sk-21">
          <mxGeometry relative="1" as="geometry" />
        </mxCell>
        <mxCell id="USSSRxIXR-6L6_t2q-sk-15" value="Variador de&lt;br&gt;Frecuencia 2" style="rounded=0;whiteSpace=wrap;html=1;" vertex="1" parent="1">
          <mxGeometry x="545" y="463.75" width="110" height="50" as="geometry" />
        </mxCell>
        <mxCell id="USSSRxIXR-6L6_t2q-sk-49" value="" style="edgeStyle=orthogonalEdgeStyle;rounded=0;orthogonalLoop=1;jettySize=auto;html=1;" edge="1" parent="1" source="USSSRxIXR-6L6_t2q-sk-16" target="USSSRxIXR-6L6_t2q-sk-22">
          <mxGeometry relative="1" as="geometry" />
        </mxCell>
        <mxCell id="USSSRxIXR-6L6_t2q-sk-16" value="Variador de&lt;br&gt;Frecuencia 1" style="rounded=0;whiteSpace=wrap;html=1;" vertex="1" parent="1">
          <mxGeometry x="185" y="463.75" width="110" height="50" as="geometry" />
        </mxCell>
        <mxCell id="USSSRxIXR-6L6_t2q-sk-51" value="" style="edgeStyle=orthogonalEdgeStyle;rounded=0;orthogonalLoop=1;jettySize=auto;html=1;" edge="1" parent="1" source="USSSRxIXR-6L6_t2q-sk-18" target="USSSRxIXR-6L6_t2q-sk-1">
          <mxGeometry relative="1" as="geometry" />
        </mxCell>
        <mxCell id="USSSRxIXR-6L6_t2q-sk-18" value="Botonera 1" style="rounded=0;whiteSpace=wrap;html=1;" vertex="1" parent="1">
          <mxGeometry x="40" y="350" width="80" height="37.5" as="geometry" />
        </mxCell>
        <mxCell id="USSSRxIXR-6L6_t2q-sk-45" value="" style="edgeStyle=orthogonalEdgeStyle;rounded=0;orthogonalLoop=1;jettySize=auto;html=1;" edge="1" parent="1" source="USSSRxIXR-6L6_t2q-sk-20" target="USSSRxIXR-6L6_t2q-sk-2">
          <mxGeometry relative="1" as="geometry" />
        </mxCell>
        <mxCell id="USSSRxIXR-6L6_t2q-sk-20" value="Botonera 2" style="rounded=0;whiteSpace=wrap;html=1;" vertex="1" parent="1">
          <mxGeometry x="720" y="350" width="80" height="37.5" as="geometry" />
        </mxCell>
        <mxCell id="USSSRxIXR-6L6_t2q-sk-21" value="Motor 2" style="rounded=0;whiteSpace=wrap;html=1;" vertex="1" parent="1">
          <mxGeometry x="720" y="470" width="80" height="37.5" as="geometry" />
        </mxCell>
        <mxCell id="USSSRxIXR-6L6_t2q-sk-22" value="Motor 1" style="rounded=0;whiteSpace=wrap;html=1;" vertex="1" parent="1">
          <mxGeometry x="40" y="470" width="80" height="37.5" as="geometry" />
        </mxCell>
        <mxCell id="USSSRxIXR-6L6_t2q-sk-39" value="SWITCH 1" style="rounded=0;whiteSpace=wrap;html=1;" vertex="1" parent="1">
          <mxGeometry x="205" y="270" width="70" height="30" as="geometry" />
        </mxCell>
        <mxCell id="USSSRxIXR-6L6_t2q-sk-40" value="SWITCH 2" style="rounded=0;whiteSpace=wrap;html=1;" vertex="1" parent="1">
          <mxGeometry x="565" y="270" width="70" height="30" as="geometry" />
        </mxCell>
        <mxCell id="USSSRxIXR-6L6_t2q-sk-41" value="" style="endArrow=classic;startArrow=classic;html=1;rounded=0;entryX=0.5;entryY=1;entryDx=0;entryDy=0;exitX=0.5;exitY=0;exitDx=0;exitDy=0;" edge="1" parent="1" source="USSSRxIXR-6L6_t2q-sk-40" target="USSSRxIXR-6L6_t2q-sk-5">
          <mxGeometry width="50" height="50" relative="1" as="geometry">
            <mxPoint x="370" y="420" as="sourcePoint" />
            <mxPoint x="420" y="370" as="targetPoint" />
          </mxGeometry>
        </mxCell>
        <mxCell id="USSSRxIXR-6L6_t2q-sk-42" value="" style="endArrow=classic;startArrow=classic;html=1;rounded=0;entryX=0.5;entryY=1;entryDx=0;entryDy=0;exitX=0.5;exitY=0;exitDx=0;exitDy=0;" edge="1" parent="1">
          <mxGeometry width="50" height="50" relative="1" as="geometry">
            <mxPoint x="599.76" y="340" as="sourcePoint" />
            <mxPoint x="599.76" y="300" as="targetPoint" />
          </mxGeometry>
        </mxCell>
        <mxCell id="USSSRxIXR-6L6_t2q-sk-43" value="" style="endArrow=classic;startArrow=classic;html=1;rounded=0;entryX=0.5;entryY=1;entryDx=0;entryDy=0;exitX=0.5;exitY=0;exitDx=0;exitDy=0;" edge="1" parent="1">
          <mxGeometry width="50" height="50" relative="1" as="geometry">
            <mxPoint x="239.76" y="270" as="sourcePoint" />
            <mxPoint x="239.76" y="230" as="targetPoint" />
          </mxGeometry>
        </mxCell>
        <mxCell id="USSSRxIXR-6L6_t2q-sk-44" value="" style="endArrow=classic;startArrow=classic;html=1;rounded=0;entryX=0.5;entryY=1;entryDx=0;entryDy=0;exitX=0.5;exitY=0;exitDx=0;exitDy=0;" edge="1" parent="1">
          <mxGeometry width="50" height="50" relative="1" as="geometry">
            <mxPoint x="239.76" y="338.75" as="sourcePoint" />
            <mxPoint x="239.76" y="298.75" as="targetPoint" />
          </mxGeometry>
        </mxCell>
        <mxCell id="USSSRxIXR-6L6_t2q-sk-54" value="Estación 1" style="swimlane;whiteSpace=wrap;html=1;" vertex="1" parent="1">
          <mxGeometry x="30" y="130" width="290" height="400" as="geometry" />
        </mxCell>
        <mxCell id="USSSRxIXR-6L6_t2q-sk-57" value="" style="endArrow=classic;startArrow=classic;html=1;rounded=0;" edge="1" parent="USSSRxIXR-6L6_t2q-sk-54">
          <mxGeometry width="50" height="50" relative="1" as="geometry">
            <mxPoint x="390" y="210" as="sourcePoint" />
            <mxPoint x="245" y="160" as="targetPoint" />
            <Array as="points">
              <mxPoint x="390" y="160" />
            </Array>
          </mxGeometry>
        </mxCell>
        <mxCell id="USSSRxIXR-6L6_t2q-sk-55" value="Estación 2" style="swimlane;whiteSpace=wrap;html=1;" vertex="1" parent="1">
          <mxGeometry x="520" y="130" width="290" height="400" as="geometry" />
        </mxCell>
        <mxCell id="USSSRxIXR-6L6_t2q-sk-56" value="" style="endArrow=classic;startArrow=classic;html=1;rounded=0;exitX=1;exitY=0.25;exitDx=0;exitDy=0;entryX=0;entryY=0.25;entryDx=0;entryDy=0;" edge="1" parent="1" source="USSSRxIXR-6L6_t2q-sk-39" target="USSSRxIXR-6L6_t2q-sk-40">
          <mxGeometry width="50" height="50" relative="1" as="geometry">
            <mxPoint x="370" y="300" as="sourcePoint" />
            <mxPoint x="420" y="250" as="targetPoint" />
          </mxGeometry>
        </mxCell>
      </root>
    </mxGraphModel>
  </diagram>
</mxfile>
